<?xml version="1.0" encoding="utf-8"?>
<!-- Generator: Adobe Illustrator 24.1.1, SVG Export Plug-In . SVG Version: 6.00 Build 0)  -->
<svg version="1.1" id="Layer_1" xmlns="http://www.w3.org/2000/svg" xmlns:xlink="http://www.w3.org/1999/xlink" x="0px" y="0px"
	 viewBox="0 0 512 512" style="enable-background:new 0 0 512 512;" xml:space="preserve">
<g>
	<path fill="#ffffff" d="M257.7,0C150.3-0.7,49.9,66.7,13.6,173.9c-45.3,133.9,26.5,279.2,160.3,324.5c133.9,45.3,279.2-26.5,324.5-160.3
		c36.8-108.9-3.7-225.1-92-289.3l2.7,54.3c44,48.7,61.4,117.6,39.5,182.4C415.9,382.2,308,433.1,207.6,399.1
		C107.2,365.1,52.2,259.2,85,162.4c22-64.9,78-109.2,142.8-120.9l35-41.4C261.2,0,259.4,0,257.7,0L257.7,0z M333,23.4l-2.7,0.5h-0.1
		l-2.3,1.6c-3.1,3-14,17.7-14,17.7l-23.7,29.4l-27.8,33.8l-47.7,59.3c0,0-21.8,27.2-17,60.8c4.8,33.6,29.7,49.9,49.1,56.5
		c19.3,6.5,49.1,8.7,73.4-15.1c24.2-23.7,23.4-58.7,23.4-58.7l-1.8-75.9l-1.5-43.8l-1-37.8c0,0,0.2-18.3-0.4-22.6l-0.8-2.2l-0.2-0.3
		l-0.1-0.3C336.8,24.6,335,23.4,333,23.4L333,23.4z"/>
</g>
</svg>
